<?xml version="1.0" encoding="UTF-8"?>
<svg version="1.1" xmlns="http://www.w3.org/2000/svg" width="1024" height="1024">
<path d="M0 0 C0.9271431 -0.00335861 1.85428619 -0.00671722 2.80952454 -0.01017761 C5.88108655 -0.01969298 8.95259407 -0.02163112 12.02416992 -0.02270508 C14.1578524 -0.0259176 16.29153466 -0.02928167 18.42521667 -0.03279114 C22.90164704 -0.03878412 27.37805809 -0.0406309 31.85449219 -0.04003906 C37.58779585 -0.03993751 43.32097548 -0.0535818 49.05424976 -0.07081127 C53.46291166 -0.08193637 57.87154363 -0.0839581 62.28021812 -0.08342934 C64.39369827 -0.08460898 66.50717919 -0.08902991 68.62064552 -0.0967617 C71.57921624 -0.10657034 74.53751862 -0.10367984 77.49609375 -0.09765625 C78.36747986 -0.10327576 79.23886597 -0.10889526 80.13665771 -0.11468506 C84.72218046 -0.09098837 88.77332425 0.01150348 92.94213867 2.14526367 C95.29072208 6.43854479 95.37624138 10.90831172 95.56202698 15.69390869 C95.61857164 16.94738598 95.61857164 16.94738598 95.67625862 18.22618604 C96.06279918 27.60566067 96.06002193 36.981368 96.02392578 46.36694336 C96.02035812 48.30910157 96.01727534 50.25126072 96.01463318 52.19342041 C96.00814885 56.33194875 95.99863532 60.47045437 95.9867382 64.60897064 C95.9682634 71.15697233 95.95880047 77.70496894 95.95082092 84.25299072 C95.92679948 102.85740492 95.89064973 121.461786 95.84619141 140.06616211 C95.82163725 150.37438905 95.80428284 160.68260356 95.79463202 170.99085546 C95.78810288 177.49780347 95.77257674 184.00464771 95.75031459 190.51155996 C95.73857905 194.5522426 95.73521701 198.59290011 95.73421669 202.63359833 C95.73207142 204.50447312 95.72648732 206.37534766 95.71718597 208.24620056 C95.70496907 210.80238482 95.70515749 213.35828492 95.70835876 215.91448975 C95.70185096 216.65154734 95.69534316 217.38860494 95.68863815 218.14799762 C95.71164921 222.87911519 96.47485833 226.69962953 97.94213867 231.14526367 C102.66280732 232.2853146 102.66280732 232.2853146 107.14687061 231.00132275 C109.54918291 228.51766382 109.43396079 227.18352965 109.41642761 223.76081848 C109.42250786 222.08227028 109.42250786 222.08227028 109.42871094 220.36981201 C109.41275879 219.14046936 109.39680664 217.91112671 109.38037109 216.64453125 C109.37934891 215.3495018 109.37832672 214.05447235 109.37727356 212.72019958 C109.374141 209.1561229 109.34641958 205.59259898 109.31478286 202.02867723 C109.28594364 198.26937742 109.28075256 194.51004832 109.27326965 190.75065613 C109.25563274 183.59222997 109.21851592 176.43405033 109.17367297 169.27574795 C109.094802 156.57081819 109.05140746 143.8657335 109.01073152 131.16063231 C108.99581872 126.72506878 108.97345472 122.28962616 108.94488817 117.85413069 C108.89281365 109.64343041 108.89043731 101.43408639 108.93379164 93.22334337 C108.94240475 91.07902158 108.94276657 88.93480012 108.94220352 86.79046249 C108.94451242 83.15984166 108.98032446 79.53077672 109.0380522 75.90063035 C109.06348238 73.89633445 109.06073262 71.89174159 109.05686474 69.88728809 C109.2563633 60.45782271 111.33815329 52.31798545 117.74901295 45.11518383 C121.36380281 41.7180972 125.31947923 39.84338347 129.94213867 38.14526367 C129.94213867 37.48526367 129.94213867 36.82526367 129.94213867 36.14526367 C131.59213867 36.80526367 133.24213867 37.46526367 134.94213867 38.14526367 C134.94213867 52.00526367 134.94213867 65.86526367 134.94213867 80.14526367 C141.77735663 80.02753354 141.77735663 80.02753354 148.61181641 79.875 C154.78861085 79.82185522 160.34322488 80.35602239 165.94213867 83.14526367 C170.71312731 88.03552702 171.18884662 91.89202718 171.49853516 98.49389648 C171.54071639 99.37516834 171.58289762 100.2564402 171.62635708 101.16441727 C172.16004211 113.62634711 172.06562104 126.09658512 172.03979492 138.56713867 C172.03792521 141.25140465 172.03645458 143.93566793 172.0355072 146.61993408 C172.03243134 152.9056108 172.02426989 159.19126958 172.01415771 165.47693849 C172.00287842 172.6477591 171.99745673 179.8185807 171.99246228 186.98940802 C171.98208296 201.70803563 171.96455818 216.42664933 171.94213867 231.14526367 C172.9762085 231.16508301 174.01027832 231.18490234 175.07568359 231.20532227 C178.92439486 231.28158594 182.77273827 231.37027081 186.62109375 231.46264648 C188.28443115 231.50085063 189.94784875 231.5357183 191.61132812 231.56713867 C194.00704547 231.61297601 196.40221477 231.67093834 198.79760742 231.73120117 C199.53738327 231.74275238 200.27715912 231.75430359 201.03935242 231.76620483 C205.90847701 231.90434745 209.58906778 232.63257524 213.69213867 235.27026367 C215.74121639 238.34388025 216.14670909 241.53800523 215.94213867 245.14526367 C214.50463867 248.52026367 214.50463867 248.52026367 211.94213867 251.14526367 C205.30862823 253.3723352 198.98803522 253.43569494 192.03759766 253.41992188 C190.28243835 253.42758827 190.28243835 253.42758827 188.49182129 253.43540955 C184.64057237 253.44926131 180.78950323 253.44835244 176.93823242 253.44604492 C174.9325331 253.44895007 172.9268337 253.45186029 170.92113549 253.45545167 C164.62286116 253.46651697 158.32464651 253.46700031 152.02636719 253.4609375 C145.54267803 253.45489204 139.05920556 253.46722991 132.57555336 253.48850757 C126.99314925 253.50614955 121.41081397 253.51212107 115.82838303 253.50886983 C112.50099748 253.50706183 109.1738007 253.51096922 105.84643364 253.52358437 C102.13654755 253.53592702 98.42716328 253.5291701 94.71728516 253.51757812 C93.62358109 253.52522186 92.52987701 253.5328656 91.4030304 253.54074097 C85.47165153 253.49979862 81.15290039 253.06684246 75.94213867 250.14526367 C70.96223805 244.90326301 70.79291122 240.44350445 70.73120117 233.49682617 C70.70313361 231.75202511 70.67446915 230.00723356 70.64526367 228.26245117 C70.60400857 225.51505795 70.56711546 222.76784266 70.54077148 220.02026367 C70.51312547 217.36624595 70.46725741 214.71303278 70.41870117 212.05932617 C70.41382187 210.83253647 70.41382187 210.83253647 70.40884399 209.58096313 C70.30933364 204.95128171 69.89487922 201.93043061 66.94213867 198.14526367 C63.52119748 195.57955778 60.09440383 195.70818313 55.94213867 196.14526367 C53.18884846 197.94088772 51.41586406 199.19781289 49.94213867 202.14526367 C49.83723734 204.12014784 49.7961056 206.09853811 49.78442383 208.07617188 C49.77416168 209.32118973 49.76389954 210.56620758 49.75332642 211.84895325 C49.7498885 212.51630808 49.74645058 213.18366291 49.74290848 213.87124062 C49.73111917 215.96057746 49.71166551 218.04970762 49.68978882 220.13896179 C49.6281809 226.07971287 49.57417136 232.0204439 49.54077148 237.96142578 C49.51979378 241.5949098 49.48446389 245.22801875 49.44001389 248.86128807 C49.42587539 250.24428064 49.41713629 251.62733959 49.4139595 253.01040077 C49.40903614 254.94907258 49.38424234 256.88766284 49.35864258 258.82617188 C49.3465123 260.47925102 49.3465123 260.47925102 49.33413696 262.16572571 C48.89171336 265.52854122 47.92193826 267.41727715 45.94213867 270.14526367 C42.73276458 272.46929318 39.82707846 272.62097059 35.94213867 272.14526367 C33.19213867 270.77026367 33.19213867 270.77026367 30.94213867 268.14526367 C28.64403947 261.01349654 28.69910803 253.66887096 28.81713867 246.25854492 C28.82849854 244.60667427 28.82849854 244.60667427 28.84008789 242.9214325 C28.86433252 239.43337627 28.90159009 235.94566605 28.94213867 232.45776367 C28.99546614 227.8496993 29.03536501 223.2418027 29.06713867 218.63354492 C29.08373535 217.58548172 29.10033203 216.53741852 29.11743164 215.45759583 C29.15447474 209.91634976 28.79956343 205.37486027 26.94213867 200.14526367 C26.61213867 199.15526367 26.28213867 198.16526367 25.94213867 197.14526367 C21.1063804 196.35204641 17.16855976 195.75105689 12.44213867 197.27026367 C9.4449048 199.51818907 8.99041429 200.57589411 7.94213867 204.14526367 C7.66520983 207.07096301 7.66506487 209.98156162 7.66870117 212.91870117 C7.64841149 214.6478743 7.62756069 216.37704092 7.60620117 218.10620117 C7.58362851 220.81393957 7.56713617 223.52141993 7.5612793 226.22924805 C7.55171587 228.85536562 7.51789646 231.48034158 7.48120117 234.10620117 C7.48624664 234.90746429 7.49129211 235.70872742 7.49649048 236.53427124 C7.39846814 242.18168282 6.48530849 245.65930624 2.94213867 250.14526367 C-3.47929886 253.24485854 -9.01843258 253.56663258 -16.07275391 253.50170898 C-17.1486528 253.50375336 -18.2245517 253.50579773 -19.33305359 253.50790405 C-22.87300889 253.51090035 -26.41249295 253.49246373 -29.95239258 253.47338867 C-32.42567327 253.47032794 -34.89895569 253.46845421 -37.37223816 253.4677124 C-42.55112326 253.46311595 -47.7298523 253.44871837 -52.90869141 253.42651367 C-59.52580157 253.39827666 -66.14278881 253.38730529 -72.7599535 253.38283157 C-79.0949488 253.37765741 -85.42991368 253.36312358 -91.76489258 253.34838867 C-92.96362314 253.34650795 -94.16235371 253.34462723 -95.39740944 253.34268951 C-98.81657582 253.33576161 -102.23564912 253.32209791 -105.65478516 253.30639648 C-106.64995148 253.30527863 -107.6451178 253.30416077 -108.67044067 253.30300903 C-126.51369131 253.19529928 -126.51369131 253.19529928 -131.18286133 250.02026367 C-133.45497679 246.5363533 -134.05786133 244.30199937 -134.05786133 240.14526367 C-132.72797173 236.70319647 -131.55579544 235.45044465 -128.41088867 233.52294922 C-124.50967396 231.92002548 -121.67972117 231.80180135 -117.47192383 231.85229492 C-116.77014008 231.85653976 -116.06835632 231.86078461 -115.3453064 231.86515808 C-113.12408573 231.88182768 -110.90380345 231.91945495 -108.68286133 231.95776367 C-107.1685516 231.97282579 -105.65422752 231.98651152 -104.13989258 231.9987793 C-100.44558201 232.03169184 -96.7518134 232.08339109 -93.05786133 232.14526367 C-93.05970491 231.44657669 -93.0615485 230.74788971 -93.06344795 230.0280304 C-93.10766092 213.00936878 -93.1407344 195.9907218 -93.16148567 178.97201538 C-93.17178815 170.74182062 -93.18582879 162.51166425 -93.20874023 154.28149414 C-93.22870563 147.10615799 -93.24158524 139.93084965 -93.24603832 132.75548649 C-93.24864037 128.95793781 -93.25473482 125.16046868 -93.26932144 121.36294556 C-93.28295518 117.78430854 -93.28707233 114.20578341 -93.28407669 110.62712288 C-93.28488421 108.6963419 -93.29561544 106.76557293 -93.30670166 104.83482361 C-93.27274418 90.46129567 -93.27274418 90.46129567 -89.68286133 85.08666992 C-84.66602828 80.82959765 -80.53183816 80.17133338 -74.05786133 80.14526367 C-72.81907227 80.13108398 -71.5802832 80.1169043 -70.30395508 80.10229492 C-66.88743732 80.08505719 -63.47406113 80.10096137 -60.05786133 80.14526367 C-58.46997249 77.32271277 -57.80038483 75.25150167 -57.73901367 72.01928711 C-57.71914398 71.21875916 -57.69927429 70.4182312 -57.67880249 69.59344482 C-57.66725128 68.73913879 -57.65570007 67.88483276 -57.64379883 67.00463867 C-57.62443268 66.12245667 -57.60506653 65.24027466 -57.58511353 64.33135986 C-57.52543285 61.51942551 -57.47897849 58.70744997 -57.43286133 55.89526367 C-57.39467095 53.98639186 -57.35561859 52.07753708 -57.31567383 50.16870117 C-57.21974075 45.49436071 -57.13566717 40.81993959 -57.05786133 36.14526367 C-55.14737262 36.92119917 -53.23890845 37.70212051 -51.33129883 38.48510742 C-50.26830566 38.91944092 -49.2053125 39.35377441 -48.11010742 39.80126953 C-40.11134589 43.32336058 -36.10565498 47.63175155 -32.31951904 55.51358032 C-29.91488972 62.43530892 -30.20947103 69.48167361 -30.25317383 76.71948242 C-30.24196777 78.45546737 -30.22818984 80.19143732 -30.21205139 81.92738342 C-30.17597121 86.59419647 -30.17625667 91.26037156 -30.18291855 95.92729187 C-30.18282242 100.80834975 -30.1459896 105.68913653 -30.11376953 110.57006836 C-30.00156762 129.69725721 -30.05134168 148.82381898 -30.14247894 167.95098305 C-30.15537623 170.80538696 -30.16613208 173.65979035 -30.17608643 176.51420593 C-30.18272057 178.37014777 -30.18937321 180.22608955 -30.19604492 182.08203125 C-30.19918953 182.9854296 -30.20233414 183.88882795 -30.20557404 184.81960201 C-30.22663506 190.1710158 -30.26999424 195.52169577 -30.33060932 200.87280178 C-30.3647065 204.18369209 -30.38301399 207.49454249 -30.39755058 210.8055706 C-30.40794986 212.33721871 -30.42541629 213.86883753 -30.45045662 215.40031624 C-30.48392073 217.48458489 -30.49294801 219.5675976 -30.49609375 221.65209961 C-30.51394173 223.39907135 -30.51394173 223.39907135 -30.53215027 225.18133545 C-29.95360572 228.7967782 -28.99655416 230.01316617 -26.05786133 232.14526367 C-22.85831179 232.0017702 -22.85831179 232.0017702 -20.05786133 231.14526367 C-18.25880236 225.75202358 -17.77905165 221.09275162 -17.83081055 215.42959595 C-17.83051283 214.57650262 -17.83021511 213.7234093 -17.82990837 212.84446466 C-17.83129229 209.99882804 -17.84695349 207.15345282 -17.86254883 204.30786133 C-17.86638898 202.26234584 -17.86931573 200.21682846 -17.87139893 198.17131042 C-17.87771374 193.77226898 -17.89024023 189.37330461 -17.90753174 184.97429276 C-17.93460631 178.01504343 -17.94637135 171.05581961 -17.95581055 164.0965271 C-17.97988814 148.06536945 -18.02398235 132.03427848 -18.06826782 116.0031662 C-18.10864733 101.31386971 -18.1447846 86.62459575 -18.16469765 71.93525541 C-18.17464928 65.02075321 -18.19434954 58.10636872 -18.22155762 51.19191384 C-18.236504 46.88563831 -18.24311362 42.57937883 -18.24748993 38.27308083 C-18.25122576 36.28049948 -18.25841129 34.28792107 -18.26935577 32.29536629 C-18.28385851 29.56846931 -18.2858603 26.84182792 -18.28491211 24.11489868 C-18.29210203 23.3326809 -18.29929195 22.55046312 -18.30669975 21.74454176 C-18.28237555 15.18157938 -17.73667441 8.74471619 -14.12036133 3.14526367 C-10.0829224 -0.76982862 -5.28163809 -0.00272784 0 0 Z M53.00463867 39.20776367 C50.53614461 42.72349763 49.94213867 44.8590969 49.94213867 49.14526367 C51.30642261 52.06872924 52.66964776 53.87277276 54.94213867 56.14526367 C58.13261063 56.99605619 60.34101465 57.28838844 63.56713867 56.52026367 C66.62268256 54.75126458 68.12077449 53.18087064 69.94213867 50.14526367 C70.55438124 45.85956567 70.44669693 43.91891967 68.06713867 40.27026367 C65.1550321 37.3581571 64.34186097 37.18458062 60.12963867 36.77026367 C56.71171943 36.82619326 55.9674882 37.12746507 53.00463867 39.20776367 Z M11.94213867 40.14526367 C11.94213867 40.80526367 11.94213867 41.46526367 11.94213867 42.14526367 C10.95213867 42.47526367 9.96213867 42.80526367 8.94213867 43.14526367 C8.20925819 48.73869915 8.20925819 48.73869915 10.06713867 53.85620117 C12.55711022 56.09976929 14.73038406 57.10636997 18.00463867 57.70776367 C21.80678021 56.97969402 23.3842744 56.06853712 25.94213867 53.14526367 C27.29731945 49.16286127 27.36235037 46.16261831 25.75463867 42.27026367 C23.86379682 40.0534146 22.6900472 39.06123318 19.94213867 38.14526367 C16.17526003 38.14526367 15.03023563 38.38063684 11.94213867 40.14526367 Z M52.94213867 71.14526367 C50.68392854 73.84054673 50.03004023 75.628842 49.44213867 79.08276367 C49.98208643 82.38994367 50.95993973 84.52457821 53.25073242 87.00463867 C56.02284403 88.87405343 58.51992199 88.83174478 61.78588867 88.61401367 C64.95461083 87.92516103 66.74731095 86.47726813 68.94213867 84.14526367 C70.71717251 80.59519599 70.32607704 76.68101713 69.37963867 72.89526367 C67.11666004 70.14033316 64.22766805 69.34000163 60.94213867 68.14526367 C58.15696119 68.14526367 55.32845936 69.79247416 52.94213867 71.14526367 Z M10.08276367 73.44995117 C8.20582455 76.23964836 8.24716095 78.77317233 8.49291992 82.05541992 C8.85657893 84.32353363 8.85657893 84.32353363 10.50463867 86.64526367 C13.75680661 88.64659779 16.12946366 89.07837464 19.94213867 89.14526367 C22.79011752 87.94278372 24.37464559 86.84173245 26.31713867 84.45776367 C27.28766453 80.86681798 27.06052401 77.68923799 25.94213867 74.14526367 C23.3842744 71.22199022 21.80678021 70.31083333 18.00463867 69.58276367 C14.72904152 70.18440397 12.55178664 71.17585107 10.08276367 73.44995117 Z M134.94213867 98.14526367 C131.99092952 101.58834102 131.46503669 104.62767502 131.65307617 109.14916992 C132.10716604 112.28484453 133.19572538 114.52564374 134.94213867 117.14526367 C139.0762963 119.71038066 143.20589654 119.98951361 147.94213867 119.14526367 C151.22389185 116.61557893 152.63457644 115.06795036 153.94213867 111.14526367 C154.33548162 105.93346967 153.91556955 102.50629562 150.94213867 98.14526367 C144.97860248 94.33875121 140.92824054 94.45171145 134.94213867 98.14526367 Z M-73.03051758 99.25073242 C-75.30670026 103.44825562 -74.71497446 108.55179014 -74.05786133 113.14526367 C-73.15081064 115.75303439 -72.53723447 116.82361976 -70.24145508 118.36401367 C-66.18493828 119.81536136 -62.28409504 119.88946315 -58.05786133 119.14526367 C-54.34211438 116.39561093 -53.35504547 114.97656052 -52.62426758 110.47338867 C-52.41981756 105.88875182 -52.54235717 103.00443727 -54.93286133 99.02026367 C-58.47078696 95.89856458 -61.12636296 95.72092445 -65.72583008 95.82495117 C-68.66824296 96.22910169 -70.87033351 97.1743228 -73.03051758 99.25073242 Z M52.94213867 102.14526367 C50.36252892 106.19893613 49.22844558 109.35332434 49.94213867 114.14526367 C51.74207642 116.84517029 53.02591167 118.68715017 55.94213867 120.14526367 C61.75559814 120.6789188 61.75559814 120.6789188 66.87963867 118.27026367 C69.73066075 115.33284699 69.91029222 114.53379033 70.25463867 110.33276367 C70.18873851 107.31233952 69.87812049 106.01444392 68.50463867 103.20776367 C63.89939054 99.50110054 58.00127557 98.89141708 52.94213867 102.14526367 Z M9.94213867 105.14526367 C8.19186398 108.64581306 8.25241808 112.3353785 8.94213867 116.14526367 C10.69214678 118.78541432 12.07107434 119.49706007 14.94213867 121.14526367 C18.70422511 121.83625914 20.35822424 121.44370882 23.75463867 119.70776367 C26.44167588 116.56009151 26.89854968 114.40239567 27.15307617 110.33666992 C26.83171389 106.99807285 25.36361371 105.35918371 22.94213867 103.14526367 C18.13656378 100.74247623 14.05298438 102.09149257 9.94213867 105.14526367 Z M52.94213867 134.14526367 C50.61576461 137.05323125 49.9691893 138.92885862 49.50463867 142.64526367 C50.01327662 146.71436728 51.07558936 148.27871436 53.94213867 151.14526367 C57.14387121 152.74612994 60.46790926 152.64443456 63.94213867 152.14526367 C66.75217328 150.35162456 68.45154335 149.12645432 69.94213867 146.14526367 C70.30419921 141.72812508 70.45646476 139.19627785 68.50463867 135.20776367 C63.85506537 131.46542418 58.05916687 130.95258796 52.94213867 134.14526367 Z M-72.05786133 136.14526367 C-75.01802777 140.58551334 -74.83437143 144.93807826 -74.05786133 150.14526367 C-71.82795604 153.29748942 -71.82795604 153.29748942 -69.05786133 155.14526367 C-68.72786133 155.47526367 -68.39786133 155.80526367 -68.05786133 156.14526367 C-63.68638214 156.69621456 -60.10623807 156.6582991 -56.12036133 154.70776367 C-53.21405152 151.09689392 -52.2446918 147.76153333 -52.05786133 143.14526367 C-52.5662587 140.13532013 -53.34013841 138.82920572 -55.05786133 136.14526367 C-61.33888217 131.9124018 -65.69745919 132.32902239 -72.05786133 136.14526367 Z M133.19213867 137.14526367 C131.37998283 141.49443769 131.23276776 145.50002835 131.94213867 150.14526367 C133.73860721 153.07949562 134.88624578 154.61731722 137.94213867 156.14526367 C142.41824212 156.68169257 145.88773929 156.72854844 149.87963867 154.52026367 C153.23186454 150.6601248 154.18892955 147.12299281 153.94213867 142.08276367 C153.37693026 138.69800985 152.76918293 137.9427789 150.37963867 135.14526367 C144.38122982 131.65528034 137.9663456 131.68902718 133.19213867 137.14526367 Z M11.94213867 136.14526367 C11.94213867 136.80526367 11.94213867 137.46526367 11.94213867 138.14526367 C10.95213867 138.47526367 9.96213867 138.80526367 8.94213867 139.14526367 C8.43429337 145.15645711 8.43429337 145.15645711 10.37963867 150.70776367 C14.23356289 152.86972116 17.63446749 153.00220714 21.94213867 152.14526367 C25.2558068 150.41503974 25.2558068 150.41503974 26.94213867 147.14526367 C27.25860466 143.21695758 27.07745855 139.59649864 24.59448242 136.42260742 C20.72515296 133.43142366 15.90706158 133.44911609 11.94213867 136.14526367 Z M50.94213867 169.14526367 C49.53213204 171.96527694 49.69665417 174.01533622 49.94213867 177.14526367 C50.71657764 180.01981003 50.71657764 180.01981003 52.94213867 182.14526367 C57.3786893 184.05906982 60.76800132 184.5295268 65.37963867 183.02026367 C68.05402704 181.06339413 69.06594637 180.29955597 69.94213867 177.14526367 C70.36196496 171.28974642 70.36196496 171.28974642 67.94213867 166.14526367 C64.94595611 163.84050785 61.63309266 163.67434391 57.91088867 163.75073242 C54.55520842 164.42320009 52.98277471 166.54809053 50.94213867 169.14526367 Z M9.94213867 168.14526367 C8.20774545 171.61405011 8.34282665 175.36084395 8.94213867 179.14526367 C11.27967149 181.81672975 13.10280978 182.82244487 16.37963867 184.08276367 C19.95974964 184.17008345 21.95838635 183.06812628 24.94213867 181.14526367 C27.11436246 178.50081732 26.94107188 177.11539349 26.81713867 173.64526367 C25.84399614 169.75269353 25.23209439 168.396286 21.94213867 166.14526367 C16.85771403 164.75860241 14.11113598 164.83458934 9.94213867 168.14526367 Z M-72.05786133 174.14526367 C-74.52817716 178.47263511 -75.22146191 182.03641527 -74.49536133 186.95776367 C-72.97609906 190.32656262 -72.10490561 192.0604439 -69.05786133 194.14526367 C-64.54208755 195.23778959 -62.17676792 195.48304679 -57.74536133 194.14526367 C-54.18823097 191.49809689 -53.2609646 189.39151052 -52.05786133 185.14526367 C-52.26077825 181.1545642 -52.63630901 177.41435931 -55.05786133 174.14526367 C-57.56233649 172.92656439 -57.56233649 172.92656439 -60.05786133 172.14526367 C-60.38786133 171.81526367 -60.71786133 171.48526367 -61.05786133 171.14526367 C-65.50468503 170.63705525 -68.43022272 171.54282728 -72.05786133 174.14526367 Z M133.32495117 175.94604492 C130.91784357 179.77429798 131.30522198 183.77884589 131.94213867 188.14526367 C133.73318139 191.32933961 135.14699467 192.67247534 138.25463867 194.52026367 C141.89221196 195.36621095 144.33252882 195.11212345 147.94213867 194.14526367 C151.46266393 191.61966947 153.17203096 189.4894708 153.94213867 185.27026367 C154.21944672 180.95567675 153.14544995 177.89089285 150.94213867 174.14526367 C148.19125023 171.84046525 146.49571269 171.21446042 142.94213867 170.77026367 C138.70142318 171.30035311 136.17051778 172.7774309 133.32495117 175.94604492 Z M-72.05786133 211.14526367 C-75.17293086 215.81786797 -74.64921162 220.67527351 -74.05786133 226.14526367 C-72.17841387 229.75958571 -70.83155954 230.74981792 -67.24536133 232.58276367 C-63.16835794 233.30223486 -60.85799375 232.76383859 -57.05786133 231.14526367 C-54.16613925 228.84671535 -53.21179772 227.20060077 -52.67895508 223.54760742 C-52.49566632 219.15458973 -52.60412975 216.03457757 -54.62036133 212.08276367 C-60.42367969 207.46986959 -65.86007881 207.42659416 -72.05786133 211.14526367 Z M133.94213867 212.14526367 C131.30358573 216.30773332 131.41201598 220.36560908 131.94213867 225.14526367 C133.37405734 229.01986713 134.62045665 229.9534917 138.19213867 232.08276367 C142.7042137 233.36118493 144.69422293 233.06884816 148.94213867 231.14526367 C151.60220989 228.3451887 153.87098353 225.89320516 154.03198242 221.93823242 C153.72844823 215.83763481 153.72844823 215.83763481 150.25463867 211.08276367 C143.47004631 207.11441719 140.11399841 207.75374809 133.94213867 212.14526367 Z " fill="#5D1ABB" transform="translate(469.057861328125,301.854736328125)"/>
<path d="M0 0 C1.39456452 0.00667256 2.78911118 0.01863093 4.18359375 0.03515625 C4.89451172 0.03966797 5.60542969 0.04417969 6.33789062 0.04882812 C8.09899388 0.06064761 9.86005411 0.07858362 11.62109375 0.09765625 C15.53640179 8.3319232 18.81703701 16.72039661 21.93359375 25.28515625 C22.61518555 27.14237305 22.61518555 27.14237305 23.31054688 29.03710938 C24.41783748 32.05593323 25.52127104 35.07610547 26.62109375 38.09765625 C27.92883358 35.54848055 29.10180917 33.0031615 30.13671875 30.33203125 C30.41572021 29.6138623 30.69472168 28.89569336 30.98217773 28.15576172 C31.27552002 27.39408691 31.5688623 26.63241211 31.87109375 25.84765625 C32.32754272 24.66840576 32.32754272 24.66840576 32.79321289 23.46533203 C35.79211395 15.69697249 38.71281848 7.900346 41.62109375 0.09765625 C46.90109375 0.09765625 52.18109375 0.09765625 57.62109375 0.09765625 C58.65554003 3.20099508 58.74192799 5.32641874 58.73461914 8.57885742 C58.73454361 9.69979294 58.73446808 10.82072845 58.73439026 11.97563171 C58.72922897 13.1850795 58.72406769 14.39452728 58.71875 15.640625 C58.71733505 16.87935867 58.7159201 18.11809235 58.71446228 19.3943634 C58.70980977 22.68397162 58.70082765 25.97353085 58.6897583 29.26312256 C58.67952004 32.62137248 58.67495949 35.97962958 58.66992188 39.33789062 C58.6588852 45.92449837 58.64214142 52.5110733 58.62109375 59.09765625 C54.53878709 59.98450218 50.80887688 60.25872483 46.62109375 60.09765625 C45.62109375 59.09765625 45.62109375 59.09765625 45.50756836 55.95483398 C45.50772742 54.56362928 45.51341869 53.17241864 45.5234375 51.78125 C45.52485245 51.05019547 45.5262674 50.31914093 45.52772522 49.56593323 C45.53333967 47.22229993 45.54589453 44.87876086 45.55859375 42.53515625 C45.56360689 40.94987117 45.56817012 39.36458459 45.57226562 37.77929688 C45.58331378 33.88538015 45.60058803 29.9915342 45.62109375 26.09765625 C44.02479619 28.49210259 43.06666594 30.27798798 42.0703125 32.90625 C41.78615479 33.6482666 41.50199707 34.3902832 41.20922852 35.15478516 C40.91201904 35.94030762 40.61480957 36.72583008 40.30859375 37.53515625 C37.53371073 44.77797246 34.65808504 51.96002696 31.62109375 59.09765625 C27.16609375 59.59265625 27.16609375 59.59265625 22.62109375 60.09765625 C22.26805176 59.1847583 21.91500977 58.27186035 21.55126953 57.33129883 C20.23580274 53.92998279 18.91995899 50.52881269 17.60400391 47.12768555 C17.03554235 45.65832403 16.46718171 44.18892347 15.89892578 42.71948242 C15.08002105 40.60194682 14.26074815 38.48455398 13.44140625 36.3671875 C13.06316208 35.3887664 13.06316208 35.3887664 12.67727661 34.39057922 C11.34575568 30.95074701 9.99106555 27.52258575 8.62109375 24.09765625 C8.62109375 35.64765625 8.62109375 47.19765625 8.62109375 59.09765625 C4.70923165 60.07562178 1.62866957 60.32029935 -2.37890625 60.09765625 C-4.37890625 58.09765625 -4.37890625 58.09765625 -4.62614441 55.69993591 C-4.62471939 54.69479446 -4.62329437 53.68965302 -4.62182617 52.65405273 C-4.6249028 51.51624863 -4.62797943 50.37844452 -4.63114929 49.2061615 C-4.62396378 47.9728157 -4.61677826 46.73946991 -4.609375 45.46875 C-4.60891678 44.20877701 -4.60845856 42.94880402 -4.60798645 41.65065002 C-4.60496089 38.983191 -4.5981321 36.31607555 -4.5847168 33.64868164 C-4.56770966 30.22301597 -4.56390294 26.79749765 -4.56466198 23.3717947 C-4.56432535 20.1124318 -4.55549158 16.85310002 -4.546875 13.59375 C-4.54576218 12.35837997 -4.54464935 11.12300995 -4.54350281 9.85020447 C-4.53712296 8.71555252 -4.5307431 7.58090057 -4.52416992 6.41186523 C-4.52035812 5.40751938 -4.51654633 4.40317352 -4.51261902 3.36839294 C-4.29656727 -0.30064067 -3.80271009 0.10990492 0 0 Z " fill="#5E1ABD" transform="translate(415.37890625,589.90234375)"/>
<path d="M0 0 C6.40600358 5.48435831 9.99976378 12.0636888 10.7890625 20.48828125 C11.32094961 31.00294218 9.73850735 38.60350458 2.9375 46.875 C-6.64947746 54.67835374 -15.36660981 56.996527 -27.75 56.0625 C-36.22203986 54.61989259 -42.90407259 49.63815239 -48.1875 43 C-53.31340762 33.36329368 -53.67741753 23.49227594 -50.75 13.0625 C-46.98128911 3.84425942 -40.44733461 -1.46507177 -31.4375 -5.375 C-20.16711211 -7.09421171 -9.59600255 -6.55726841 0 0 Z M-34.75 10.0625 C-39.03362618 15.58612324 -39.99376899 21.11995918 -39.75 28.0625 C-38.71362692 34.00559517 -36.69889479 38.40462124 -31.75 42.0625 C-25.73633476 45.05763288 -20.2671177 45.70450817 -13.75 44.0625 C-8.1926761 41.6627465 -4.74859117 37.37741589 -2.375 31.875 C-1.31518217 25.41011122 -1.4994846 19.51886954 -4.5 13.625 C-8.38789197 9.19712304 -11.62000298 6.32051327 -17.640625 5.82421875 C-26.94187101 5.60915764 -26.94187101 5.60915764 -34.75 10.0625 Z " fill="#5D1AB7" transform="translate(677.75,594.9375)"/>
<path d="M0 0 C4.29153445 -0.08807085 8.58283224 -0.14074921 12.875 -0.1875 C14.07898438 -0.21263672 15.28296875 -0.23777344 16.5234375 -0.26367188 C24.58241636 -0.32937007 31.71428189 0.35714095 39 4 C39 4.66 39 5.32 39 6 C39.66 6 40.32 6 41 6 C44.92823373 11.65665658 45.8005422 17.22874721 45 24 C43.27281004 29.34114721 40.74026124 32.88140708 36 36 C35.01 36.495 35.01 36.495 34 37 C35.48910781 41.52654932 38.04886447 44.89887604 41 48.5625 C46.42857143 55.34821429 46.42857143 55.34821429 48 59 C43.27696744 60.57434419 38.90118475 61.04632034 34 60 C30.9084723 57.47921588 29.07526009 54.37291676 27 51 C25.69345309 49.18320401 24.38106522 47.37059243 23.0625 45.5625 C20 41.26153846 20 41.26153846 20 39 C17.69 39 15.38 39 13 39 C13 45.6 13 52.2 13 59 C10.49860398 60.25069801 8.72607309 60.13302467 5.9375 60.125 C4.58978516 60.12886719 4.58978516 60.12886719 3.21484375 60.1328125 C1 60 1 60 0 59 C-0.09381302 57.15881971 -0.11743954 55.31402359 -0.11352539 53.47045898 C-0.11344986 52.28931015 -0.11337433 51.10816132 -0.11329651 49.89122009 C-0.10813522 48.6058284 -0.10297394 47.32043671 -0.09765625 45.99609375 C-0.0962413 44.68794205 -0.09482635 43.37979034 -0.09336853 42.03199768 C-0.0895441 38.54837141 -0.07971446 35.06478661 -0.06866455 31.58117676 C-0.05844882 28.02873292 -0.05387056 24.47628241 -0.04882812 20.92382812 C-0.03809212 13.94920168 -0.0210166 6.97460283 0 0 Z M12 11 C12.33 16.94 12.66 22.88 13 29 C15.8153125 29.0928125 15.8153125 29.0928125 18.6875 29.1875 C20.27111328 29.23970703 20.27111328 29.23970703 21.88671875 29.29296875 C25.39127965 28.96317946 27.18471242 28.06621999 30 26 C32.08476888 23.02175874 32.35886546 20.58865463 32 17 C31.5 14.75 31.5 14.75 30 13 C24.41991517 10.06311325 18.12582866 10.86387047 12 11 Z " fill="#5E1ABB" transform="translate(562,590)"/>
<path d="M0 0 C3.96 0.33 7.92 0.66 12 1 C12.09944869 6.81660061 12.1717413 12.63269792 12.21972656 18.44995117 C12.23974646 20.4256249 12.26697092 22.40124009 12.30175781 24.37670898 C12.35070207 27.2291515 12.37306525 30.08080549 12.390625 32.93359375 C12.41127014 33.80584091 12.43191528 34.67808807 12.45318604 35.57676697 C12.4559053 43.13891424 10.49653325 49.12898676 5.5 54.875 C4.675 55.57625 3.85 56.2775 3 57 C2.38125 57.556875 1.7625 58.11375 1.125 58.6875 C-5.84745012 62.99401331 -14.06436949 62.72382837 -22 62 C-25.59147719 61.06727366 -28.7336338 59.74726574 -32 58 C-32.61875 57.67644531 -33.2375 57.35289062 -33.875 57.01953125 C-37.4829371 54.89466445 -38.83931352 52.96567879 -40 49 C-40.33257812 48.26007812 -40.66515625 47.52015625 -41.0078125 46.7578125 C-45.74914331 33.57915285 -43.10242786 15.76630451 -43 2 C-40.35541621 0.67770811 -38.32238699 0.90322806 -35.375 0.9375 C-33.87066406 0.95103516 -33.87066406 0.95103516 -32.3359375 0.96484375 C-31.56507813 0.97644531 -30.79421875 0.98804688 -30 1 C-28.47198433 4.05603133 -28.94102652 7.22395177 -29.0078125 10.5703125 C-29.02534646 12.1223891 -29.04225302 13.67447288 -29.05859375 15.2265625 C-29.08940321 17.66882351 -29.12472719 20.110722 -29.17138672 22.55273438 C-29.21411377 24.91280402 -29.23728497 27.27245855 -29.2578125 29.6328125 C-29.27643341 30.35083038 -29.29505432 31.06884827 -29.3142395 31.80862427 C-29.34353665 37.69188443 -28.36294572 43.56367087 -24.11328125 47.9453125 C-19.72889778 50.13345213 -14.68594676 50.5591562 -9.8984375 49.5625 C-6.85008034 48.42098753 -5.10445878 47.13579641 -3.125 44.5625 C-0.95343828 39.61616497 -0.87903932 35.16256643 -0.9375 29.8046875 C-0.94128662 29.01603302 -0.94507324 28.22737854 -0.94897461 27.41482544 C-0.96116905 24.90149423 -0.9798053 22.3882789 -1 19.875 C-1.02652586 16.55989905 -1.04654395 13.24485425 -1.0625 9.9296875 C-1.07079834 9.16510223 -1.07909668 8.40051697 -1.08764648 7.61276245 C-1.11279192 2.22558383 -1.11279192 2.22558383 0 0 Z " fill="#5C1AB8" transform="translate(377,589)"/>
<path d="M0 0 C1.06412109 0.0515625 2.12824219 0.103125 3.22460938 0.15625 C4.33771484 0.22070312 5.45082031 0.28515625 6.59765625 0.3515625 C14.96337912 0.79160052 23.28167013 1.06156574 31.66015625 0.9765625 C32.70717811 4.702971 32.73457682 8.10669292 32.66015625 11.9765625 C29.34147034 12.99902071 26.47732036 13.02100121 23.01953125 12.85546875 C21.41464844 12.78295898 21.41464844 12.78295898 19.77734375 12.70898438 C18.11058594 12.62487305 18.11058594 12.62487305 16.41015625 12.5390625 C15.28351562 12.48685547 14.156875 12.43464844 12.99609375 12.38085938 C10.21719869 12.25133461 7.43863963 12.11463698 4.66015625 11.9765625 C4.66015625 16.2665625 4.66015625 20.5565625 4.66015625 24.9765625 C12.25015625 25.3065625 19.84015625 25.6365625 27.66015625 25.9765625 C27.66015625 29.2765625 27.66015625 32.5765625 27.66015625 35.9765625 C20.07015625 36.3065625 12.48015625 36.6365625 4.66015625 36.9765625 C4.66015625 41.2665625 4.66015625 45.5565625 4.66015625 49.9765625 C13.90015625 49.9765625 23.14015625 49.9765625 32.66015625 49.9765625 C32.66015625 53.2765625 32.66015625 56.5765625 32.66015625 59.9765625 C30.79052907 61.84618968 28.11352064 61.10542553 25.62634277 61.11550903 C24.78156372 61.1134848 23.93678467 61.11146057 23.06640625 61.109375 C22.20454712 61.11033173 21.34268799 61.11128845 20.45471191 61.11227417 C18.62882413 61.112956 16.80293394 61.11110154 14.97705078 61.10693359 C12.17214547 61.10158536 9.3674003 61.10687849 6.5625 61.11328125 C4.79296839 61.11262047 3.02343689 61.11133931 1.25390625 61.109375 C0.4091272 61.11139923 -0.43565186 61.11342346 -1.30603027 61.11550903 C-7.22489344 61.09151281 -7.22489344 61.09151281 -8.33984375 59.9765625 C-8.4493087 58.17708665 -8.48893358 56.37331865 -8.50097656 54.57055664 C-8.51058411 53.41588394 -8.52019165 52.26121124 -8.53009033 51.07154846 C-8.53434021 49.81430466 -8.53859009 48.55706085 -8.54296875 47.26171875 C-8.54866882 45.98050644 -8.5543689 44.69929413 -8.5602417 43.3792572 C-8.57075909 40.66307171 -8.576597 37.94691589 -8.58007812 35.23071289 C-8.5855667 31.74556977 -8.6095987 28.26081662 -8.63805008 24.77579594 C-8.66112191 21.45861035 -8.66312244 18.14148049 -8.66796875 14.82421875 C-8.68031555 13.56899918 -8.69266235 12.3137796 -8.7053833 11.02052307 C-8.7023822 9.86269821 -8.6993811 8.70487335 -8.69628906 7.51196289 C-8.69993469 6.48905655 -8.70358032 5.46615021 -8.70733643 4.4122467 C-8.58606384 3.60847092 -8.46479126 2.80469513 -8.33984375 1.9765625 C-4.9197726 -0.30348493 -3.97503197 -0.217911 0 0 Z " fill="#601AC2" transform="translate(508.33984375,589.0234375)"/>
<path d="M0 0 C1.06412109 0.0515625 2.12824219 0.103125 3.22460938 0.15625 C4.33771484 0.22070312 5.45082031 0.28515625 6.59765625 0.3515625 C14.96337912 0.79160052 23.28167013 1.06156574 31.66015625 0.9765625 C32.70717811 4.702971 32.73457682 8.10669292 32.66015625 11.9765625 C29.34147034 12.99902071 26.47732036 13.02100121 23.01953125 12.85546875 C21.41464844 12.78295898 21.41464844 12.78295898 19.77734375 12.70898438 C18.11058594 12.62487305 18.11058594 12.62487305 16.41015625 12.5390625 C15.28351562 12.48685547 14.156875 12.43464844 12.99609375 12.38085938 C10.21719869 12.25133461 7.43863963 12.11463698 4.66015625 11.9765625 C4.66015625 16.2665625 4.66015625 20.5565625 4.66015625 24.9765625 C12.25015625 25.3065625 19.84015625 25.6365625 27.66015625 25.9765625 C27.66015625 29.2765625 27.66015625 32.5765625 27.66015625 35.9765625 C20.07015625 36.3065625 12.48015625 36.6365625 4.66015625 36.9765625 C4.66015625 41.2665625 4.66015625 45.5565625 4.66015625 49.9765625 C13.90015625 49.9765625 23.14015625 49.9765625 32.66015625 49.9765625 C32.66015625 53.2765625 32.66015625 56.5765625 32.66015625 59.9765625 C30.79052907 61.84618968 28.11352064 61.10542553 25.62634277 61.11550903 C24.78156372 61.1134848 23.93678467 61.11146057 23.06640625 61.109375 C22.20454712 61.11033173 21.34268799 61.11128845 20.45471191 61.11227417 C18.62882413 61.112956 16.80293394 61.11110154 14.97705078 61.10693359 C12.17214547 61.10158536 9.3674003 61.10687849 6.5625 61.11328125 C4.79296839 61.11262047 3.02343689 61.11133931 1.25390625 61.109375 C0.4091272 61.11139923 -0.43565186 61.11342346 -1.30603027 61.11550903 C-7.22489344 61.09151281 -7.22489344 61.09151281 -8.33984375 59.9765625 C-8.4493087 58.17708665 -8.48893358 56.37331865 -8.50097656 54.57055664 C-8.51058411 53.41588394 -8.52019165 52.26121124 -8.53009033 51.07154846 C-8.53434021 49.81430466 -8.53859009 48.55706085 -8.54296875 47.26171875 C-8.54866882 45.98050644 -8.5543689 44.69929413 -8.5602417 43.3792572 C-8.57075909 40.66307171 -8.576597 37.94691589 -8.58007812 35.23071289 C-8.5855667 31.74556977 -8.6095987 28.26081662 -8.63805008 24.77579594 C-8.66112191 21.45861035 -8.66312244 18.14148049 -8.66796875 14.82421875 C-8.68031555 13.56899918 -8.69266235 12.3137796 -8.7053833 11.02052307 C-8.7023822 9.86269821 -8.6993811 8.70487335 -8.69628906 7.51196289 C-8.69993469 6.48905655 -8.70358032 5.46615021 -8.70733643 4.4122467 C-8.58606384 3.60847092 -8.46479126 2.80469513 -8.33984375 1.9765625 C-4.9197726 -0.30348493 -3.97503197 -0.217911 0 0 Z M-6.33984375 2.9765625 C-6.33984375 21.4565625 -6.33984375 39.9365625 -6.33984375 58.9765625 C5.87015625 58.9765625 18.08015625 58.9765625 30.66015625 58.9765625 C30.66015625 56.3365625 30.66015625 53.6965625 30.66015625 50.9765625 C21.42015625 50.9765625 12.18015625 50.9765625 2.66015625 50.9765625 C2.99015625 46.0265625 3.32015625 41.0765625 3.66015625 35.9765625 C10.92015625 35.6465625 18.18015625 35.3165625 25.66015625 34.9765625 C25.66015625 32.3365625 25.66015625 29.6965625 25.66015625 26.9765625 C18.07015625 26.9765625 10.48015625 26.9765625 2.66015625 26.9765625 C2.99015625 22.0265625 3.32015625 17.0765625 3.66015625 11.9765625 C12.57015625 11.6465625 21.48015625 11.3165625 30.66015625 10.9765625 C30.66015625 8.3365625 30.66015625 5.6965625 30.66015625 2.9765625 C18.45015625 2.9765625 6.24015625 2.9765625 -6.33984375 2.9765625 Z " fill="#4A168C" transform="translate(508.33984375,589.0234375)"/>
<path d="M0 0 C5.28 0 10.56 0 16 0 C17.03444628 3.10333883 17.12083424 5.22876249 17.11352539 8.48120117 C17.11344986 9.60213669 17.11337433 10.7230722 17.11329651 11.87797546 C17.10813522 13.08742325 17.10297394 14.29687103 17.09765625 15.54296875 C17.0962413 16.78170242 17.09482635 18.0204361 17.09336853 19.29670715 C17.08871602 22.58631537 17.0797339 25.8758746 17.06866455 29.16546631 C17.05842629 32.52371623 17.05386574 35.88197333 17.04882812 39.24023438 C17.03779145 45.82684212 17.02104767 52.41341705 17 59 C12.91769334 59.88684593 9.18778313 60.16106858 5 60 C4 59 4 59 3.91821289 55.9206543 C3.93198189 54.55512461 3.95048107 53.1896378 3.97265625 51.82421875 C3.98530811 50.34179926 3.99766866 48.85937725 4.00976562 47.37695312 C4.03455031 45.03320565 4.06247018 42.68958732 4.09594727 40.34594727 C4.12620916 38.08869615 4.14394787 35.83160846 4.16015625 33.57421875 C4.17361588 32.87616623 4.1870755 32.17811371 4.20094299 31.45890808 C4.22026727 27.70040761 3.80156673 25.27160004 2 22 C2.875 19.25 2.875 19.25 4 17 C4.66 17 5.32 17 6 17 C6 30.53 6 44.06 6 58 C8.97 58 11.94 58 15 58 C15 39.52 15 21.04 15 2 C10.38 2 5.76 2 1 2 C0.62230469 3.33804688 0.24460937 4.67609375 -0.14453125 6.0546875 C-2.29213335 13.21336118 -5.00721798 20.15403246 -7.6875 27.125 C-8.20410221 28.47643786 -8.72038055 29.82799958 -9.23632812 31.1796875 C-10.48716096 34.45455893 -11.742347 37.7277407 -13 41 C-14.11005412 37.66983764 -13.94396487 37.11765337 -12.8125 33.96484375 C-12.52898682 33.16336914 -12.24547363 32.36189453 -11.95336914 31.53613281 C-11.63875732 30.67858398 -11.32414551 29.82103516 -11 28.9375 C-10.68474365 28.05803711 -10.3694873 27.17857422 -10.04467773 26.27246094 C-6.85839179 17.45278358 -3.46257058 8.71431137 0 0 Z " fill="#491589" transform="translate(457,590)"/>
<path d="M0 0 C0.33 0 0.66 0 1 0 C1.00423194 0.81575626 1.00846388 1.63151253 1.01282406 2.47198868 C1.11607388 22.309968 1.22470316 42.14791148 1.33933926 61.9858284 C1.39464603 71.5792443 1.44812387 81.17266391 1.49731445 90.76611328 C1.54018745 99.12656723 1.58647334 107.48699409 1.63687855 115.84740615 C1.66345435 120.27523809 1.68830683 124.70306473 1.70907402 129.13092804 C1.72866834 133.29723112 1.75282052 137.46348273 1.78049088 141.62973976 C1.78984649 143.15997953 1.79752712 144.69023057 1.80341911 146.22048759 C1.81170563 148.30795718 1.82598935 150.39530272 1.84178162 152.48272705 C1.84823417 153.65156055 1.85468672 154.82039406 1.8613348 156.02464676 C1.97914782 158.5525727 2.32383134 160.58484248 3 163 C3.03786901 164.66623639 3.04627845 166.33397597 3 168 C2.67 168 2.34 168 2 168 C1.67 184.83 1.34 201.66 1 219 C0.67 219 0.34 219 0 219 C0 146.73 0 74.46 0 0 Z " fill="#681ECB" transform="translate(562,312)"/>
<path d="M0 0 C-0.59167969 0.30292969 -1.18335938 0.60585938 -1.79296875 0.91796875 C-9.6856547 5.10250861 -14.73953726 9.56115527 -18 18 C-18.98489134 22.00849556 -19.13641165 25.7818015 -19.15821838 29.90327454 C-19.16315636 30.58541635 -19.16809434 31.26755817 -19.17318195 31.97037095 C-19.1885014 34.248881 -19.19690244 36.527363 -19.20532227 38.8059082 C-19.21490516 40.44209539 -19.22491548 42.07828012 -19.23532104 43.71446228 C-19.26233159 48.15202548 -19.28336199 52.58959927 -19.30332303 57.02719903 C-19.32520635 61.66636089 -19.35258356 66.30549024 -19.37937927 70.94462585 C-19.42927444 79.72760143 -19.47422505 88.51059509 -19.51740164 97.29360598 C-19.56680115 107.29355313 -19.62170922 117.29346766 -19.67708123 127.29338324 C-19.79085252 147.86222509 -19.89770213 168.4310981 -20 189 C-20.33 189 -20.66 189 -21 189 C-21.1320143 175.28903099 -21.2625 161.57804831 -21.39115143 147.86704731 C-21.45096562 141.49721387 -21.5112632 135.12738585 -21.57275391 128.75756836 C-22.09839258 74.23185696 -22.09839258 74.23185696 -22.01013184 53.68130493 C-22.00048209 51.12758137 -21.99955945 48.57400167 -22.00097656 46.02026367 C-21.99935961 41.99175474 -21.94259072 37.96548435 -21.875 33.9375 C-21.87757813 32.64263672 -21.88015625 31.34777344 -21.8828125 30.01367188 C-21.68991539 20.47973217 -19.73894655 12.12667854 -13.09326172 4.93725586 C-9.1608449 1.36187433 -5.4142854 -1.93367336 0 0 Z " fill="#3E0D71" transform="translate(600,342)"/>
<path d="M0 0 C4.41661151 -0.05804281 8.83312496 -0.09361104 13.25 -0.125 C14.50425781 -0.14175781 15.75851562 -0.15851562 17.05078125 -0.17578125 C18.25605469 -0.18222656 19.46132813 -0.18867187 20.703125 -0.1953125 C21.81333008 -0.20578613 22.92353516 -0.21625977 24.06738281 -0.22705078 C27 0 27 0 31 2 C21.43 2 11.86 2 2 2 C2 20.48 2 38.96 2 58 C4.97 58 7.94 58 11 58 C11 51.4 11 44.8 11 38 C11.33 38 11.66 38 12 38 C12 45.26 12 52.52 12 60 C8.37 60 4.74 60 1 60 C0 59 0 59 -0.12025452 56.63987732 C-0.11803391 55.59396927 -0.11581329 54.54806122 -0.11352539 53.47045898 C-0.11344986 52.28931015 -0.11337433 51.10816132 -0.11329651 49.89122009 C-0.10813522 48.6058284 -0.10297394 47.32043671 -0.09765625 45.99609375 C-0.0962413 44.68794205 -0.09482635 43.37979034 -0.09336853 42.03199768 C-0.0895441 38.54837141 -0.07971446 35.06478661 -0.06866455 31.58117676 C-0.05844882 28.02873292 -0.05387056 24.47628241 -0.04882812 20.92382812 C-0.03809212 13.94920168 -0.0210166 6.97460283 0 0 Z " fill="#4C158F" transform="translate(562,590)"/>
<path d="M0 0 C1.39456452 0.00667256 2.78911118 0.01863093 4.18359375 0.03515625 C4.89451172 0.03966797 5.60542969 0.04417969 6.33789062 0.04882812 C8.09899388 0.06064761 9.86005411 0.07858362 11.62109375 0.09765625 C12.32046577 1.52941785 13.00522093 2.96832657 13.68359375 4.41015625 C14.06644531 5.21066406 14.44929688 6.01117187 14.84375 6.8359375 C15.62109375 9.09765625 15.62109375 9.09765625 14.62109375 12.09765625 C13.30109375 9.12765625 11.98109375 6.15765625 10.62109375 3.09765625 C6.33109375 2.76765625 2.04109375 2.43765625 -2.37890625 2.09765625 C-2.37890625 20.57765625 -2.37890625 39.05765625 -2.37890625 58.09765625 C0.59109375 58.09765625 3.56109375 58.09765625 6.62109375 58.09765625 C6.62109375 53.47765625 6.62109375 48.85765625 6.62109375 44.09765625 C6.95109375 44.09765625 7.28109375 44.09765625 7.62109375 44.09765625 C7.81613833 46.20113699 8.00187871 48.3054821 8.18359375 50.41015625 C8.28800781 51.58191406 8.39242188 52.75367188 8.5 53.9609375 C8.62109375 57.09765625 8.62109375 57.09765625 7.62109375 60.09765625 C5.99645533 60.15161103 4.37130834 60.1904282 2.74609375 60.22265625 C1.84117187 60.24585938 0.93625 60.2690625 0.00390625 60.29296875 C-2.37890625 60.09765625 -2.37890625 60.09765625 -4.37890625 58.09765625 C-4.62614441 55.69993591 -4.62614441 55.69993591 -4.62182617 52.65405273 C-4.6249028 51.51624863 -4.62797943 50.37844452 -4.63114929 49.2061615 C-4.62396378 47.9728157 -4.61677826 46.73946991 -4.609375 45.46875 C-4.60891678 44.20877701 -4.60845856 42.94880402 -4.60798645 41.65065002 C-4.60496089 38.983191 -4.5981321 36.31607555 -4.5847168 33.64868164 C-4.56770966 30.22301597 -4.56390294 26.79749765 -4.56466198 23.3717947 C-4.56432535 20.1124318 -4.55549158 16.85310002 -4.546875 13.59375 C-4.54576218 12.35837997 -4.54464935 11.12300995 -4.54350281 9.85020447 C-4.53712296 8.71555252 -4.5307431 7.58090057 -4.52416992 6.41186523 C-4.52035812 5.40751938 -4.51654633 4.40317352 -4.51261902 3.36839294 C-4.29656727 -0.30064067 -3.80271009 0.10990492 0 0 Z " fill="#561C9E" transform="translate(415.37890625,589.90234375)"/>
<path d="M0 0 C1.50433594 0.01353516 1.50433594 0.01353516 3.0390625 0.02734375 C3.80992187 0.03894531 4.58078125 0.05054688 5.375 0.0625 C6.90301567 3.11853133 6.43397348 6.28645177 6.3671875 9.6328125 C6.34965354 11.1848891 6.33274698 12.73697288 6.31640625 14.2890625 C6.28559679 16.73132351 6.25027281 19.173222 6.20361328 21.61523438 C6.16088623 23.97530402 6.13771503 26.33495855 6.1171875 28.6953125 C6.09856659 29.41333038 6.07994568 30.13134827 6.0607605 30.87112427 C6.03155724 36.73553075 7.01800205 42.57959404 11.203125 46.98828125 C13.84226617 48.29361186 16.21762305 48.80004881 19.125 49.25 C20.60226562 49.48783203 20.60226562 49.48783203 22.109375 49.73046875 C22.85703125 49.84003906 23.6046875 49.94960938 24.375 50.0625 C24.375 50.3925 24.375 50.7225 24.375 51.0625 C17.67296259 51.46462224 13.09573029 50.98593094 7.625 46.6875 C3.94935122 41.90915658 4.10601798 37.00963027 4.1796875 31.26171875 C4.1825174 30.42534378 4.18534729 29.58896881 4.18826294 28.72724915 C4.1994168 26.06801774 4.22451237 23.40912882 4.25 20.75 C4.26003601 18.94206217 4.26916077 17.13411904 4.27734375 15.32617188 C4.29934041 10.90481688 4.33383706 6.48371642 4.375 2.0625 C1.075 2.0625 -2.225 2.0625 -5.625 2.0625 C-5.625 14.6025 -5.625 27.1425 -5.625 40.0625 C-5.955 40.0625 -6.285 40.0625 -6.625 40.0625 C-7.77636362 31.87603269 -7.73914983 23.74740646 -7.6875 15.5 C-7.68247366 14.09570473 -7.67791276 12.6914077 -7.67382812 11.28710938 C-7.66211593 7.87886097 -7.64571372 4.4707036 -7.625 1.0625 C-4.98041621 -0.25979189 -2.94738699 -0.03427194 0 0 Z " fill="#43157F" transform="translate(341.625,589.9375)"/>
<path d="M0 0 C3.4761739 2.80547682 5.80682659 6.30007397 6.3125 10.75 C5.91485635 14.88549396 4.65876389 16.83822672 2 20 C-1.90847967 22.32396089 -5.52704104 22.61695986 -10 22 C-13.03800074 20.4958047 -15.10695662 18.82286175 -17 16 C-18.15290935 11.11571511 -17.775922 7.330152 -15.25 3 C-10.42725986 -1.28688013 -6.14485841 -1.91684532 0 0 Z M-12.9375 3.0625 C-15.40599406 6.57823396 -16 8.71383323 -16 13 C-14.63571607 15.92346557 -13.27249091 17.72750909 -11 20 C-7.80952804 20.85079252 -5.60112402 21.14312477 -2.375 20.375 C0.68054389 18.60600091 2.17863582 17.03560696 4 14 C4.61224257 9.714302 4.50455826 7.773656 2.125 4.125 C-0.78710658 1.21289342 -1.6002777 1.03931695 -5.8125 0.625 C-9.23041924 0.68092959 -9.97465048 0.9822014 -12.9375 3.0625 Z " fill="#4C1592" transform="translate(535,338)"/>
<path d="M0 0 C19.20707522 8.00294801 19.20707522 8.00294801 24.16796875 17.80859375 C25.24040648 20.63318325 25.38280382 23.01413022 25 26 C24.71253906 25.42378906 24.42507813 24.84757812 24.12890625 24.25390625 C23.41176327 22.82210175 22.69083993 21.39217964 21.96484375 19.96484375 C21.62582031 19.29582031 21.28679687 18.62679688 20.9375 17.9375 C20.59589844 17.26589844 20.25429688 16.59429687 19.90234375 15.90234375 C19 14 19 14 18 11 C16.21129243 9.89896574 16.21129243 9.89896574 14 9 C13.18402344 8.58621094 12.36804688 8.17242187 11.52734375 7.74609375 C10.67269531 7.31425781 9.81804687 6.88242187 8.9375 6.4375 C8.08027344 6.00308594 7.22304688 5.56867188 6.33984375 5.12109375 C3.93493008 3.90901121 3.93493008 3.90901121 1 3 C1 14.22 1 25.44 1 37 C0.67 37 0.34 37 0 37 C0 24.79 0 12.58 0 0 Z " fill="#451380" transform="translate(412,338)"/>
<path d="M0 0 C0.33 0 0.66 0 1 0 C1 15.84 1 31.68 1 48 C3.97 48 6.94 48 10 48 C10 43.38 10 38.76 10 34 C10.33 34 10.66 34 11 34 C11.19504458 36.10348074 11.38078496 38.20782585 11.5625 40.3125 C11.66691406 41.48425781 11.77132813 42.65601563 11.87890625 43.86328125 C12 47 12 47 11 50 C9.35425434 50.02688151 7.70838587 50.04634123 6.0625 50.0625 C5.14597656 50.07410156 4.22945313 50.08570313 3.28515625 50.09765625 C1 50 1 50 0 49 C-0.09319449 47.4651703 -0.117458 45.92607918 -0.11352539 44.38842773 C-0.11344986 43.40748642 -0.11337433 42.4265451 -0.11329651 41.4158783 C-0.10813522 40.3492244 -0.10297394 39.2825705 -0.09765625 38.18359375 C-0.0962413 37.0974025 -0.09482635 36.01121124 -0.09336853 34.8921051 C-0.08775048 31.40720925 -0.07519492 27.92237658 -0.0625 24.4375 C-0.05748733 22.08138113 -0.05292402 19.72526126 -0.04882812 17.36914062 C-0.03777519 11.57940536 -0.02101951 5.78970719 0 0 Z " fill="#380B6A" transform="translate(412,600)"/>
<path d="M0 0 C5.29877676 -0.50464541 7.90716575 0.63478073 12 4 C15.16205748 7.68906706 15.52383784 11.07890732 15.3515625 15.78515625 C14.62718108 20.3487592 12.17228734 23.04949675 8.6875 25.875 C4.27190702 27.72338776 0.55570761 27.52960259 -3.9375 26 C-4.618125 25.67 -5.29875 25.34 -6 25 C-6 24.34 -6 23.68 -6 23 C-5.33613281 23.08378906 -4.67226563 23.16757812 -3.98828125 23.25390625 C2.59606972 24.20751529 2.59606972 24.20751529 9 23 C12.63464777 19.10763882 12.56742541 15.76115477 12.41015625 10.6328125 C12.15334676 7.76030557 12.15334676 7.76030557 9.9375 4.9375 C6.54977518 2.7030432 3.94455194 1.85078571 0 1 C0 0.67 0 0.34 0 0 Z " fill="#4E1695" transform="translate(403,396)"/>
<path d="M0 0 C3.68881485 3.53156519 6.77382244 7.18534092 9.8125 11.3125 C10.21919922 11.86228516 10.62589844 12.41207031 11.04492188 12.97851562 C12.03368611 14.31625547 13.01738585 15.65773623 14 17 C13.67 17.66 13.34 18.32 13 19 C1.36143498 19.92017937 1.36143498 19.92017937 -1.9765625 17.6640625 C-3.3125 16 -3.3125 16 -5 13 C-4.67 12.34 -4.34 11.68 -4 11 C-3.54625 11.825 -3.0925 12.65 -2.625 13.5 C0.43867469 16.41778542 1.18633543 16.34127949 5.25 16.3125 C6.83473048 16.23234745 8.41906283 16.1357675 10 16 C9.278125 15.01257813 8.55625 14.02515625 7.8125 13.0078125 C6.87475251 11.71372097 5.93726598 10.41944031 5 9.125 C4.52304687 8.47402344 4.04609375 7.82304688 3.5546875 7.15234375 C0 2.2265625 0 2.2265625 0 0 Z " fill="#4A1689" transform="translate(596,631)"/>
<path d="M0 0 C3.47024779 3.15084688 5.57907859 6.22955733 6 11 C5.608125 10.46375 5.21625 9.9275 4.8125 9.375 C4.214375 8.59125 3.61625 7.8075 3 7 C2.60167969 6.47148438 2.20335937 5.94296875 1.79296875 5.3984375 C0.59814201 3.87512365 -0.69770546 2.43252399 -2 1 C-2.99 1 -3.98 1 -5 1 C-5.66 0.34 -6.32 -0.32 -7 -1 C-9.92252076 -1.32111786 -9.92252076 -1.32111786 -13.25 -1.25 C-14.36890625 -1.25515625 -15.4878125 -1.2603125 -16.640625 -1.265625 C-20.06103339 -0.9951741 -22.80578847 -0.21960804 -26 1 C-24.53541868 -1.38958004 -23.61427191 -2.7766284 -20.9375 -3.75 C-13.05037 -4.42124511 -6.68175816 -4.82571423 0 0 Z " fill="#511994" transform="translate(670,603)"/>
<path d="M0 0 C1.45655196 2.91310392 0.92167283 5.60425265 0.7421875 8.80859375 C0.83048645 11.054575 0.83048645 11.054575 2.234375 12.7578125 C5.50129637 15.05622178 9.18373497 14.63493026 13 14 C16.02690443 12.18409021 16.02690443 12.18409021 18 10 C17.7041325 12.86005251 17.15920836 13.85571743 15 15.8125 C10.77194672 17.48610442 7.37054558 17.04513047 3 16 C0 14.625 0 14.625 -2 13 C-3.08828929 9.73513213 -2.89901381 8.63009917 -2.125 5.375 C-1.94195312 4.57835937 -1.75890625 3.78171875 -1.5703125 2.9609375 C-1 1 -1 1 0 0 Z " fill="#51169C" transform="translate(478,439)"/>
<path d="M0 0 C-0.59167969 0.30292969 -1.18335938 0.60585938 -1.79296875 0.91796875 C-9.7602664 5.1420662 -14.60176321 9.57237277 -18 18 C-18.76754832 20.81448914 -18.76754832 20.81448914 -19 23 C-19.66 23 -20.32 23 -21 23 C-20.41149653 15.54562268 -17.06633484 8.43884863 -11.4375 3.5 C-7.6508122 0.49163833 -4.84789032 -1.7313894 0 0 Z " fill="#4A1489" transform="translate(600,342)"/>
<path d="M0 0 C0.66 0.33 1.32 0.66 2 1 C1.113125 1.61875 0.22625 2.2375 -0.6875 2.875 C-6.66674472 7.8199204 -9.57777361 15.683908 -10.31640625 23.234375 C-10.39761719 24.39453125 -10.47882812 25.5546875 -10.5625 26.75 C-10.64628906 27.92046875 -10.73007812 29.0909375 -10.81640625 30.296875 C-10.87699219 31.18890625 -10.93757812 32.0809375 -11 33 C-11.33 33 -11.66 33 -12 33 C-13.94154683 24.45719395 -12.53968108 16.09388296 -8.1875 8.5 C-5.88400012 4.97966358 -3.57590845 2.31382311 0 0 Z " fill="#461485" transform="translate(638,594)"/>
<path d="M0 0 C0.33 0 0.66 0 1 0 C1.33 4.62 1.66 9.24 2 14 C2.33 14 2.66 14 3 14 C3 17.3 3 20.6 3 24 C2.34 24 1.68 24 1 24 C1 28.62 1 33.24 1 38 C0.67 38 0.34 38 0 38 C0 25.46 0 12.92 0 0 Z " fill="#651DC6" transform="translate(421,610)"/>
<path d="M0 0 C0.33 0 0.66 0 1 0 C1.02469575 4.09341499 1.04285793 8.18680121 1.05493164 12.28027344 C1.0599643 13.67318477 1.06679098 15.0660908 1.07543945 16.45898438 C1.08755152 18.45961246 1.09270412 20.46027888 1.09765625 22.4609375 C1.10289307 23.66540527 1.10812988 24.86987305 1.11352539 26.11083984 C1 29 1 29 0 31 C-1.32 30.67 -2.64 30.34 -4 30 C-3.690625 29.236875 -3.38125 28.47375 -3.0625 27.6875 C-1.57515718 23.92539758 -0.84643488 20.91903352 -0.68359375 16.89453125 C-0.64169922 15.91162109 -0.59980469 14.92871094 -0.55664062 13.91601562 C-0.51732422 12.89185547 -0.47800781 11.86769531 -0.4375 10.8125 C-0.39431641 9.77673828 -0.35113281 8.74097656 -0.30664062 7.67382812 C-0.20055634 5.1160181 -0.09849854 2.55811155 0 0 Z " fill="#5B18B5" transform="translate(413,353)"/>
<path d="M0 0 C-1.485 0.86625 -1.485 0.86625 -3 1.75 C-5.44088634 3.7429119 -5.95390897 4.69563308 -6.43359375 7.86328125 C-6.43911793 12.38758685 -6.26587498 16.63743913 -5 21 C-8 19 -8 19 -8.6875 17.375 C-9.4491712 11.58629891 -9.54504056 6.34458517 -7 1 C-4.10758195 -1.14598758 -3.50082948 -1.16694316 0 0 Z " fill="#51199B" transform="translate(402,398)"/>
<path d="M0 0 C0.66 0.33 1.32 0.66 2 1 C1.46890625 1.4846875 0.9378125 1.969375 0.390625 2.46875 C-4.34877234 6.96598835 -7.45744113 11.00862366 -10 17 C-10.65917616 18.33705236 -11.32394392 19.67140284 -12 21 C-11.61172092 13.75212387 -9.62625399 8.51559365 -4.3359375 3.38671875 C-2.93252825 2.20612566 -1.47125232 1.09488545 0 0 Z " fill="#671DCC" transform="translate(640,594)"/>
<path d="M0 0 C0.33 0 0.66 0 1 0 C1.04898438 0.66386719 1.09796875 1.32773437 1.1484375 2.01171875 C1.40738782 8.91621708 1.40738782 8.91621708 4 15 C7.26296923 16.33116158 10.56724222 17.22097932 14 18 C14 18.33 14 18.66 14 19 C8.32688601 18.6153821 5.17694415 18.17694415 1 14 C-0.38226016 11.23547967 -0.09525387 8.9538637 -0.0625 5.875 C-0.05347656 4.77929688 -0.04445313 3.68359375 -0.03515625 2.5546875 C-0.02355469 1.71164062 -0.01195312 0.86859375 0 0 Z " fill="#4B1591" transform="translate(600,517)"/>
<path d="M0 0 C0.33 0 0.66 0 1 0 C1.19504458 2.10348074 1.38078496 4.20782585 1.5625 6.3125 C1.66691406 7.48425781 1.77132813 8.65601563 1.87890625 9.86328125 C2 13 2 13 1 16 C-2.3 16 -5.6 16 -9 16 C-9.33 15.34 -9.66 14.68 -10 14 C-6.7 14 -3.4 14 0 14 C0 9.38 0 4.76 0 0 Z " fill="#471680" transform="translate(422,634)"/>
<path d="M0 0 C3.80195622 0.5431366 5.50130343 2.15665563 8 5 C9.26237731 7.52475462 9.09856404 9.31200466 9.0625 12.125 C9.05347656 13.03507813 9.04445313 13.94515625 9.03515625 14.8828125 C9.02355469 15.58148437 9.01195312 16.28015625 9 17 C8.67 17 8.34 17 8 17 C7.92523437 16.26394531 7.85046875 15.52789063 7.7734375 14.76953125 C6.99957536 7.98394867 6.99957536 7.98394867 2.875 2.875 C1.92625 2.25625 0.9775 1.6375 0 1 C0 0.67 0 0.34 0 0 Z " fill="#4B148E" transform="translate(615,510)"/>
<path d="M0 0 C0.80244141 0.04833984 1.60488281 0.09667969 2.43164062 0.14648438 C3.68170898 0.2305957 3.68170898 0.2305957 4.95703125 0.31640625 C6.22450195 0.3947168 6.22450195 0.3947168 7.51757812 0.47460938 C9.60189424 0.60414314 11.68576307 0.74083802 13.76953125 0.87890625 C13.76953125 1.20890625 13.76953125 1.53890625 13.76953125 1.87890625 C10.83247994 2.10045752 7.89572762 2.30664822 4.95703125 2.50390625 C4.12365234 2.56835938 3.29027344 2.6328125 2.43164062 2.69921875 C1.22797852 2.7765625 1.22797852 2.7765625 0 2.85546875 C-1.10758667 2.934021 -1.10758667 2.934021 -2.23754883 3.01416016 C-4.23046875 2.87890625 -4.23046875 2.87890625 -7.23046875 0.87890625 C-4.35516794 -0.07952735 -2.93996944 -0.18765762 0 0 Z " fill="#3E1081" transform="translate(394.23046875,382.12109375)"/>
<path d="M0 0 C7.26153846 -0.49230769 7.26153846 -0.49230769 11 2 C11.66 2.66 12.32 3.32 13 4 C12.67 4.99 12.34 5.98 12 7 C11.34 6.01 10.68 5.02 10 4 C6.84038931 1.9688217 3.68611749 1.50265238 0 1 C0 0.67 0 0.34 0 0 Z " fill="#48138A" transform="translate(483,339)"/>
<path d="M0 0 C0.66 0 1.32 0 2 0 C1.67 2.97 1.34 5.94 1 9 C0.01 8.34 -0.98 7.68 -2 7 C-1.34 4.69 -0.68 2.38 0 0 Z " fill="#4E159B" transform="translate(461,607)"/>
<path d="M0 0 C0.99 0.33 1.98 0.66 3 1 C2.0409375 1.804375 2.0409375 1.804375 1.0625 2.625 C-1.38529404 5.44367193 -1.66714612 7.33860732 -2 11 C-2.33 11 -2.66 11 -3 11 C-3.36923077 4.6 -3.36923077 4.6 -1.5 1.5625 C-1.005 1.046875 -0.51 0.53125 0 0 Z " fill="#671DCA" transform="translate(340,537)"/>
<path d="M0 0 C0.33 0 0.66 0 1 0 C1 2.97 1 5.94 1 9 C-0.32 8.67 -1.64 8.34 -3 8 C-2.690625 7.236875 -2.38125 6.47375 -2.0625 5.6875 C-1.32106407 3.81210323 -0.63771783 1.91315348 0 0 Z " fill="#51189A" transform="translate(412,375)"/>
<path d="M0 0 C1.11375 0.598125 2.2275 1.19625 3.375 1.8125 C4.00148438 2.14894531 4.62796875 2.48539062 5.2734375 2.83203125 C7 4 7 4 9 7 C8.01 7.495 8.01 7.495 7 8 C7 7.34 7 6.68 7 6 C6.401875 5.71125 5.80375 5.4225 5.1875 5.125 C3 4 3 4 0 2 C0 1.34 0 0.68 0 0 Z " fill="#4D1592" transform="translate(423,343)"/>
<path d="M0 0 C1.1577506 3.47325181 1.06866652 6.36067448 1 10 C-0.32 10.33 -1.64 10.66 -3 11 C-2.69217504 9.35328588 -2.37860766 7.70764424 -2.0625 6.0625 C-1.88847656 5.14597656 -1.71445312 4.22945312 -1.53515625 3.28515625 C-1 1 -1 1 0 0 Z " fill="#4E1892" transform="translate(540,591)"/>
<path d="M0 0 C0.99 0 1.98 0 3 0 C2.3125 2.375 2.3125 2.375 1 5 C-1.625 6.3125 -1.625 6.3125 -4 7 C-3.34 6.030625 -2.68 5.06125 -2 4.0625 C0.09113148 1.4700747 0.09113148 1.4700747 0 0 Z " fill="#4F1698" transform="translate(620,528)"/>
<path d="M0 0 C0.99 0.33 1.98 0.66 3 1 C2.01 1 1.02 1 0 1 C0 0.67 0 0.34 0 0 Z " fill="#6D28C4" transform="translate(666,604)"/>
<path d="M0 0 C4 1 4 1 4 1 Z " fill="#6B2FBA" transform="translate(468,300)"/>
<path d="M0 0 C0.99 0.495 0.99 0.495 2 1 C1.01 1.495 1.01 1.495 0 2 C0 1.34 0 0.68 0 0 Z " fill="#6B29BE" transform="translate(579,630)"/>
<path d="M0 0 C2 1 2 1 2 1 Z " fill="#6F34B5" transform="translate(413,651)"/>
<path d="" fill="#6D2ABD" transform="translate(0,0)"/>
<path d="" fill="#6A27C2" transform="translate(0,0)"/>
<path d="M0 0 C2 1 2 1 2 1 Z " fill="#6C26BF" transform="translate(530,613)"/>
<path d="" fill="#6B28C3" transform="translate(0,0)"/>
<path d="M0 0 C2 1 2 1 2 1 Z " fill="#6E27C3" transform="translate(655,587)"/>
<path d="M0 0 C2 1 2 1 2 1 Z " fill="#6A22C5" transform="translate(491,482)"/>
<path d="" fill="#6923C0" transform="translate(0,0)"/>
<path d="" fill="#6826C0" transform="translate(0,0)"/>
<path d="M0 0 C2 1 2 1 2 1 Z " fill="#6924C1" transform="translate(482,469)"/>
<path d="M0 0 C2 1 2 1 2 1 Z " fill="#6725BE" transform="translate(403,456)"/>
<path d="" fill="#6B26C7" transform="translate(0,0)"/>
<path d="M0 0 C2 1 2 1 2 1 Z " fill="#6823BF" transform="translate(524,436)"/>
<path d="" fill="#6A23C2" transform="translate(0,0)"/>
<path d="M0 0 C2 1 2 1 2 1 Z " fill="#6A28C1" transform="translate(608,381)"/>
<path d="" fill="#6B26C4" transform="translate(0,0)"/>
<path d="M0 0 C2 1 2 1 2 1 Z " fill="#6922C1" transform="translate(488,373)"/>
<path d="M0 0 C2 1 2 1 2 1 Z " fill="#6D2FBC" transform="translate(540,300)"/>
<path d="M0 0 C2 1 2 1 2 1 Z " fill="#6C2FBC" transform="translate(516,300)"/>
<path d="M0 0 C2 1 2 1 2 1 Z " fill="#6C2FBC" transform="translate(500,300)"/>
<path d="M0 0 C2 1 2 1 2 1 Z " fill="#6D2FBD" transform="translate(484,300)"/>
<path d="M0 0 C2 1 2 1 2 1 Z " fill="#6C2EB7" transform="translate(463,300)"/>
<path d="" fill="#6F30B6" transform="translate(0,0)"/>
<path d="" fill="#7233B9" transform="translate(0,0)"/>
<path d="" fill="#6E31B6" transform="translate(0,0)"/>
<path d="" fill="#7132B8" transform="translate(0,0)"/>
<path d="" fill="#6B2CBD" transform="translate(0,0)"/>
<path d="" fill="#6C2CBD" transform="translate(0,0)"/>
<path d="" fill="#6E2BBC" transform="translate(0,0)"/>
<path d="" fill="#6E30B5" transform="translate(0,0)"/>
<path d="" fill="#7130BB" transform="translate(0,0)"/>
<path d="" fill="#6E30B7" transform="translate(0,0)"/>
<path d="" fill="#6F31BA" transform="translate(0,0)"/>
<path d="" fill="#6F2FBE" transform="translate(0,0)"/>
<path d="" fill="#6E2ABF" transform="translate(0,0)"/>
<path d="" fill="#6C27BF" transform="translate(0,0)"/>
<path d="" fill="#6C2ABE" transform="translate(0,0)"/>
<path d="" fill="#6C2BBD" transform="translate(0,0)"/>
<path d="" fill="#6F2BC3" transform="translate(0,0)"/>
<path d="" fill="#6B2CBC" transform="translate(0,0)"/>
<path d="" fill="#6A25BE" transform="translate(0,0)"/>
<path d="" fill="#6625BB" transform="translate(0,0)"/>
<path d="" fill="#6E2ABD" transform="translate(0,0)"/>
<path d="" fill="#6824B9" transform="translate(0,0)"/>
<path d="" fill="#6929BD" transform="translate(0,0)"/>
<path d="" fill="#6926C1" transform="translate(0,0)"/>
<path d="" fill="#6D29C3" transform="translate(0,0)"/>
<path d="" fill="#6B25BB" transform="translate(0,0)"/>
<path d="" fill="#6A26BD" transform="translate(0,0)"/>
<path d="" fill="#6826C0" transform="translate(0,0)"/>
<path d="" fill="#6C26C3" transform="translate(0,0)"/>
<path d="" fill="#7030BB" transform="translate(0,0)"/>
<path d="" fill="#6F29C4" transform="translate(0,0)"/>
<path d="" fill="#6F2FBA" transform="translate(0,0)"/>
<path d="" fill="#6F28C3" transform="translate(0,0)"/>
<path d="" fill="#6D29C2" transform="translate(0,0)"/>
<path d="" fill="#6E28C2" transform="translate(0,0)"/>
<path d="" fill="#6825BE" transform="translate(0,0)"/>
<path d="" fill="#722CC6" transform="translate(0,0)"/>
<path d="" fill="#6B2AC0" transform="translate(0,0)"/>
<path d="" fill="#6A29C0" transform="translate(0,0)"/>
<path d="" fill="#6F2ABF" transform="translate(0,0)"/>
<path d="" fill="#742FC5" transform="translate(0,0)"/>
<path d="" fill="#6B27BE" transform="translate(0,0)"/>
<path d="" fill="#6B27BD" transform="translate(0,0)"/>
<path d="" fill="#6C29BD" transform="translate(0,0)"/>
<path d="" fill="#6C29BD" transform="translate(0,0)"/>
<path d="" fill="#6B29BF" transform="translate(0,0)"/>
<path d="" fill="#7134BD" transform="translate(0,0)"/>
<path d="" fill="#6B27C0" transform="translate(0,0)"/>
<path d="" fill="#6A25C4" transform="translate(0,0)"/>
<path d="" fill="#6F26C0" transform="translate(0,0)"/>
<path d="" fill="#6C27C5" transform="translate(0,0)"/>
<path d="" fill="#6B27C3" transform="translate(0,0)"/>
<path d="" fill="#6A26C1" transform="translate(0,0)"/>
<path d="" fill="#6827C0" transform="translate(0,0)"/>
<path d="" fill="#6D25C5" transform="translate(0,0)"/>
<path d="" fill="#6824BC" transform="translate(0,0)"/>
<path d="" fill="#6A25C3" transform="translate(0,0)"/>
<path d="" fill="#6B25C4" transform="translate(0,0)"/>
<path d="" fill="#6825BE" transform="translate(0,0)"/>
<path d="" fill="#6823BE" transform="translate(0,0)"/>
<path d="" fill="#6B26BF" transform="translate(0,0)"/>
<path d="" fill="#6B25C2" transform="translate(0,0)"/>
<path d="" fill="#6B25C3" transform="translate(0,0)"/>
<path d="" fill="#6A26BF" transform="translate(0,0)"/>
<path d="" fill="#6A25C0" transform="translate(0,0)"/>
<path d="" fill="#6925C5" transform="translate(0,0)"/>
<path d="" fill="#6825BF" transform="translate(0,0)"/>
<path d="" fill="#6E26C5" transform="translate(0,0)"/>
<path d="" fill="#6B24C6" transform="translate(0,0)"/>
<path d="" fill="#6D26C2" transform="translate(0,0)"/>
<path d="" fill="#6C23C2" transform="translate(0,0)"/>
<path d="" fill="#6D26C2" transform="translate(0,0)"/>
<path d="" fill="#6B26C2" transform="translate(0,0)"/>
<path d="" fill="#6B25C3" transform="translate(0,0)"/>
<path d="" fill="#6A22C2" transform="translate(0,0)"/>
<path d="" fill="#6824BE" transform="translate(0,0)"/>
<path d="" fill="#6821C1" transform="translate(0,0)"/>
<path d="" fill="#6723C0" transform="translate(0,0)"/>
<path d="" fill="#6B24C3" transform="translate(0,0)"/>
<path d="" fill="#6B24C3" transform="translate(0,0)"/>
<path d="" fill="#6B22BF" transform="translate(0,0)"/>
<path d="" fill="#6C26C6" transform="translate(0,0)"/>
<path d="" fill="#6B26C3" transform="translate(0,0)"/>
<path d="" fill="#6724BA" transform="translate(0,0)"/>
<path d="" fill="#6622BD" transform="translate(0,0)"/>
<path d="" fill="#6725C2" transform="translate(0,0)"/>
<path d="" fill="#6E23C2" transform="translate(0,0)"/>
<path d="" fill="#6724C2" transform="translate(0,0)"/>
<path d="" fill="#6A25C4" transform="translate(0,0)"/>
<path d="" fill="#6A25C3" transform="translate(0,0)"/>
<path d="" fill="#6724C3" transform="translate(0,0)"/>
<path d="" fill="#6824BF" transform="translate(0,0)"/>
<path d="" fill="#6827C0" transform="translate(0,0)"/>
<path d="" fill="#6C24C5" transform="translate(0,0)"/>
<path d="" fill="#6A26BF" transform="translate(0,0)"/>
<path d="" fill="#6820C1" transform="translate(0,0)"/>
<path d="" fill="#6923C9" transform="translate(0,0)"/>
<path d="" fill="#6823C0" transform="translate(0,0)"/>
<path d="" fill="#6927C1" transform="translate(0,0)"/>
<path d="" fill="#6623BF" transform="translate(0,0)"/>
<path d="" fill="#6B26BF" transform="translate(0,0)"/>
<path d="" fill="#6822C4" transform="translate(0,0)"/>
<path d="" fill="#6925BE" transform="translate(0,0)"/>
<path d="" fill="#6824C0" transform="translate(0,0)"/>
<path d="" fill="#6823BD" transform="translate(0,0)"/>
<path d="" fill="#6B28C5" transform="translate(0,0)"/>
<path d="" fill="#6B26C3" transform="translate(0,0)"/>
<path d="" fill="#6823BE" transform="translate(0,0)"/>
<path d="" fill="#6826C3" transform="translate(0,0)"/>
<path d="" fill="#6723C3" transform="translate(0,0)"/>
<path d="" fill="#6D26C3" transform="translate(0,0)"/>
<path d="" fill="#6B22C5" transform="translate(0,0)"/>
<path d="" fill="#6725C0" transform="translate(0,0)"/>
<path d="" fill="#6B27C2" transform="translate(0,0)"/>
<path d="" fill="#6725C0" transform="translate(0,0)"/>
<path d="" fill="#6C26C5" transform="translate(0,0)"/>
<path d="" fill="#6D28BE" transform="translate(0,0)"/>
<path d="" fill="#6B26C2" transform="translate(0,0)"/>
<path d="" fill="#6C26C4" transform="translate(0,0)"/>
<path d="" fill="#6721C2" transform="translate(0,0)"/>
<path d="" fill="#6722BF" transform="translate(0,0)"/>
<path d="" fill="#6A25C1" transform="translate(0,0)"/>
<path d="" fill="#6821BB" transform="translate(0,0)"/>
<path d="" fill="#6824BD" transform="translate(0,0)"/>
<path d="" fill="#6925C0" transform="translate(0,0)"/>
<path d="" fill="#6924BE" transform="translate(0,0)"/>
<path d="" fill="#6A26C0" transform="translate(0,0)"/>
<path d="" fill="#6926C0" transform="translate(0,0)"/>
<path d="" fill="#6925C0" transform="translate(0,0)"/>
<path d="" fill="#6123B5" transform="translate(0,0)"/>
<path d="" fill="#6B24C6" transform="translate(0,0)"/>
<path d="" fill="#6622BB" transform="translate(0,0)"/>
<path d="" fill="#6B25C3" transform="translate(0,0)"/>
<path d="" fill="#6A21BE" transform="translate(0,0)"/>
<path d="" fill="#6C21BD" transform="translate(0,0)"/>
<path d="" fill="#6823BD" transform="translate(0,0)"/>
<path d="" fill="#6C2FBA" transform="translate(0,0)"/>
<path d="" fill="#6826BF" transform="translate(0,0)"/>
<path d="" fill="#6C24C2" transform="translate(0,0)"/>
<path d="" fill="#6C25C2" transform="translate(0,0)"/>
<path d="" fill="#6929BF" transform="translate(0,0)"/>
<path d="" fill="#6C2DBC" transform="translate(0,0)"/>
<path d="" fill="#6A25C3" transform="translate(0,0)"/>
<path d="" fill="#6A23BF" transform="translate(0,0)"/>
<path d="" fill="#6A23C2" transform="translate(0,0)"/>
<path d="" fill="#6724BD" transform="translate(0,0)"/>
<path d="" fill="#6623C0" transform="translate(0,0)"/>
<path d="" fill="#6722BD" transform="translate(0,0)"/>
<path d="" fill="#6925C3" transform="translate(0,0)"/>
<path d="" fill="#6A27BE" transform="translate(0,0)"/>
<path d="" fill="#6A23CA" transform="translate(0,0)"/>
<path d="" fill="#6823C3" transform="translate(0,0)"/>
<path d="" fill="#6C2CBF" transform="translate(0,0)"/>
<path d="" fill="#6823C1" transform="translate(0,0)"/>
<path d="" fill="#6927C1" transform="translate(0,0)"/>
<path d="" fill="#6823BE" transform="translate(0,0)"/>
<path d="" fill="#6C27C0" transform="translate(0,0)"/>
<path d="" fill="#6725C0" transform="translate(0,0)"/>
<path d="" fill="#6B30B6" transform="translate(0,0)"/>
<path d="" fill="#6B2CBF" transform="translate(0,0)"/>
<path d="" fill="#6B2DBB" transform="translate(0,0)"/>
<path d="" fill="#6C2FBB" transform="translate(0,0)"/>
<path d="" fill="#6C2FB6" transform="translate(0,0)"/>
<path d="" fill="#6D2FBC" transform="translate(0,0)"/>
<path d="" fill="#6D2EBD" transform="translate(0,0)"/>
<path d="" fill="#6D2EBC" transform="translate(0,0)"/>
<path d="" fill="#6E2FBC" transform="translate(0,0)"/>
<path d="" fill="#6C2EBC" transform="translate(0,0)"/>
<path d="" fill="#6A2EBA" transform="translate(0,0)"/>
<path d="" fill="#6E2FBB" transform="translate(0,0)"/>
<path d="" fill="#6C2FB9" transform="translate(0,0)"/>
</svg>
